<svg width="146" height="45" viewBox="0 0 146 45" fill="none" xmlns="http://www.w3.org/2000/svg">
<path fill-rule="evenodd" clip-rule="evenodd" d="M48.2655 11.736V7.296H65.2255V0H39.3055V11.736H48.2655ZM48.2655 13.736H39.3055V30.736H48.2655V25.6H63.3055V18.496H48.2655V13.736ZM20.864 11.736V7.296H32.768V0.064003H0V7.296H11.904V11.736H20.864ZM11.904 13.736H20.864V30.736H11.904V13.736ZM73.368 13.736H82.328V20.096L87.4892 13.736H98.0199L90.968 22.208L98.1393 30.736H87.15L82.328 24.832V30.736H73.368V13.736ZM130.512 13.736L119.275 30.736H129.247L140.556 13.736H130.512ZM141.887 11.736H131.834L134.558 7.616H114.59V0.064003H145.054V6.976L141.887 11.736ZM99.6846 11.736H89.1122L98.584 0.064003H109.4L99.6846 11.736ZM82.328 11.736V0.064003H73.368V11.736H82.328ZM20.864 32.736H11.904V44.736H20.864V32.736ZM48.2655 32.736H39.3055V44.736H65.2255V37.44H48.2655V32.736ZM73.368 44.736V32.736H82.328V44.736H73.368ZM98.584 44.736L88.7834 32.736H99.8211L109.912 44.736H98.584ZM114.59 37.824L117.953 32.736H127.917L124.958 37.184H145.054V44.736H114.59V37.824Z" fill="black"/>
</svg>
